<mxfile host="app.diagrams.net" agent="Mozilla/5.0 (Windows NT 10.0; Win64; x64) AppleWebKit/537.36 (KHTML, like Gecko) Chrome/135.0.0.0 Safari/537.36 Edg/135.0.0.0" version="26.2.12">
  <diagram id="R2lEEEUBdFMjLlhIrx00" name="Page-1">
    <mxGraphModel dx="2570" dy="2053" grid="1" gridSize="10" guides="1" tooltips="1" connect="1" arrows="1" fold="1" page="1" pageScale="1" pageWidth="850" pageHeight="1100" math="0" shadow="0" extFonts="Permanent Marker^https://fonts.googleapis.com/css?family=Permanent+Marker">
      <root>
        <mxCell id="0" />
        <mxCell id="1" parent="0" />
        <mxCell id="flxJ69BRBtbWZ8iZQbLb-144" style="edgeStyle=orthogonalEdgeStyle;rounded=0;orthogonalLoop=1;jettySize=auto;html=1;exitX=1;exitY=0.5;exitDx=0;exitDy=0;entryX=0;entryY=0.5;entryDx=0;entryDy=0;endArrow=none;" edge="1" parent="1" source="flxJ69BRBtbWZ8iZQbLb-1" target="flxJ69BRBtbWZ8iZQbLb-143">
          <mxGeometry relative="1" as="geometry" />
        </mxCell>
        <mxCell id="flxJ69BRBtbWZ8iZQbLb-180" style="endArrow=none;edgeStyle=none;rounded=0;orthogonalLoop=1;jettySize=auto;html=1;exitX=0.5;exitY=1;exitDx=0;exitDy=0;entryX=0;entryY=0.5;entryDx=0;entryDy=0;" edge="1" parent="1" source="flxJ69BRBtbWZ8iZQbLb-1" target="flxJ69BRBtbWZ8iZQbLb-179">
          <mxGeometry relative="1" as="geometry" />
        </mxCell>
        <mxCell id="flxJ69BRBtbWZ8iZQbLb-1" value="储户" style="whiteSpace=wrap;html=1;align=center;" vertex="1" parent="1">
          <mxGeometry x="400" y="-920" width="100" height="40" as="geometry" />
        </mxCell>
        <mxCell id="flxJ69BRBtbWZ8iZQbLb-142" style="rounded=0;orthogonalLoop=1;jettySize=auto;html=1;exitX=0.5;exitY=1;exitDx=0;exitDy=0;entryX=0.5;entryY=0;entryDx=0;entryDy=0;endArrow=none;" edge="1" parent="1" source="flxJ69BRBtbWZ8iZQbLb-2" target="flxJ69BRBtbWZ8iZQbLb-110">
          <mxGeometry relative="1" as="geometry" />
        </mxCell>
        <mxCell id="flxJ69BRBtbWZ8iZQbLb-156" style="rounded=0;orthogonalLoop=1;jettySize=auto;html=1;exitX=1;exitY=0.5;exitDx=0;exitDy=0;entryX=0;entryY=0.5;entryDx=0;entryDy=0;endArrow=none;" edge="1" parent="1" source="flxJ69BRBtbWZ8iZQbLb-2" target="flxJ69BRBtbWZ8iZQbLb-151">
          <mxGeometry relative="1" as="geometry" />
        </mxCell>
        <mxCell id="flxJ69BRBtbWZ8iZQbLb-157" style="endArrow=none;rounded=0;orthogonalLoop=1;jettySize=auto;html=1;exitX=1;exitY=0.5;exitDx=0;exitDy=0;entryX=0;entryY=0.5;entryDx=0;entryDy=0;" edge="1" parent="1" source="flxJ69BRBtbWZ8iZQbLb-2" target="flxJ69BRBtbWZ8iZQbLb-153">
          <mxGeometry relative="1" as="geometry" />
        </mxCell>
        <mxCell id="flxJ69BRBtbWZ8iZQbLb-158" style="endArrow=none;edgeStyle=none;rounded=0;orthogonalLoop=1;jettySize=auto;html=1;exitX=1;exitY=0.5;exitDx=0;exitDy=0;entryX=0;entryY=0.5;entryDx=0;entryDy=0;" edge="1" parent="1" source="flxJ69BRBtbWZ8iZQbLb-2" target="flxJ69BRBtbWZ8iZQbLb-154">
          <mxGeometry relative="1" as="geometry" />
        </mxCell>
        <mxCell id="flxJ69BRBtbWZ8iZQbLb-159" style="endArrow=none;edgeStyle=none;rounded=0;orthogonalLoop=1;jettySize=auto;html=1;exitX=1;exitY=0.5;exitDx=0;exitDy=0;entryX=0;entryY=0.5;entryDx=0;entryDy=0;" edge="1" parent="1" source="flxJ69BRBtbWZ8iZQbLb-2" target="flxJ69BRBtbWZ8iZQbLb-150">
          <mxGeometry relative="1" as="geometry" />
        </mxCell>
        <mxCell id="flxJ69BRBtbWZ8iZQbLb-2" value="取款单" style="whiteSpace=wrap;html=1;align=center;" vertex="1" parent="1">
          <mxGeometry x="630" y="-760" width="100" height="40" as="geometry" />
        </mxCell>
        <mxCell id="flxJ69BRBtbWZ8iZQbLb-3" value="存款单" style="whiteSpace=wrap;html=1;align=center;" vertex="1" parent="1">
          <mxGeometry x="160" y="-760" width="100" height="40" as="geometry" />
        </mxCell>
        <mxCell id="flxJ69BRBtbWZ8iZQbLb-6" value="姓名" style="ellipse;whiteSpace=wrap;html=1;align=center;" vertex="1" parent="1">
          <mxGeometry x="240" y="-1000" width="100" height="40" as="geometry" />
        </mxCell>
        <mxCell id="flxJ69BRBtbWZ8iZQbLb-7" value="住址" style="ellipse;whiteSpace=wrap;html=1;align=center;" vertex="1" parent="1">
          <mxGeometry x="460" y="-1000" width="100" height="40" as="geometry" />
        </mxCell>
        <mxCell id="flxJ69BRBtbWZ8iZQbLb-8" value="电话号码" style="ellipse;whiteSpace=wrap;html=1;align=center;" vertex="1" parent="1">
          <mxGeometry x="570" y="-1000" width="100" height="40" as="geometry" />
        </mxCell>
        <mxCell id="flxJ69BRBtbWZ8iZQbLb-9" value="身份证号" style="ellipse;whiteSpace=wrap;html=1;align=center;" vertex="1" parent="1">
          <mxGeometry x="350" y="-1000" width="100" height="40" as="geometry" />
        </mxCell>
        <mxCell id="flxJ69BRBtbWZ8iZQbLb-11" value="" style="endArrow=none;html=1;rounded=0;entryX=0.5;entryY=1;entryDx=0;entryDy=0;exitX=0.5;exitY=0;exitDx=0;exitDy=0;" edge="1" parent="1" source="flxJ69BRBtbWZ8iZQbLb-1" target="flxJ69BRBtbWZ8iZQbLb-6">
          <mxGeometry width="50" height="50" relative="1" as="geometry">
            <mxPoint x="430" y="-920" as="sourcePoint" />
            <mxPoint x="480" y="-970" as="targetPoint" />
            <Array as="points" />
          </mxGeometry>
        </mxCell>
        <mxCell id="flxJ69BRBtbWZ8iZQbLb-14" value="" style="endArrow=none;html=1;rounded=0;entryX=0.5;entryY=1;entryDx=0;entryDy=0;exitX=0.5;exitY=0;exitDx=0;exitDy=0;" edge="1" parent="1" source="flxJ69BRBtbWZ8iZQbLb-1" target="flxJ69BRBtbWZ8iZQbLb-9">
          <mxGeometry width="50" height="50" relative="1" as="geometry">
            <mxPoint x="440" y="-920" as="sourcePoint" />
            <mxPoint x="490" y="-970" as="targetPoint" />
          </mxGeometry>
        </mxCell>
        <mxCell id="flxJ69BRBtbWZ8iZQbLb-15" value="" style="endArrow=none;html=1;rounded=0;entryX=0.5;entryY=1;entryDx=0;entryDy=0;exitX=0.5;exitY=0;exitDx=0;exitDy=0;" edge="1" parent="1" source="flxJ69BRBtbWZ8iZQbLb-1" target="flxJ69BRBtbWZ8iZQbLb-7">
          <mxGeometry width="50" height="50" relative="1" as="geometry">
            <mxPoint x="440" y="-920" as="sourcePoint" />
            <mxPoint x="490" y="-970" as="targetPoint" />
          </mxGeometry>
        </mxCell>
        <mxCell id="flxJ69BRBtbWZ8iZQbLb-16" value="" style="endArrow=none;html=1;rounded=0;entryX=0.5;entryY=1;entryDx=0;entryDy=0;exitX=0.5;exitY=0;exitDx=0;exitDy=0;" edge="1" parent="1" source="flxJ69BRBtbWZ8iZQbLb-1" target="flxJ69BRBtbWZ8iZQbLb-8">
          <mxGeometry width="50" height="50" relative="1" as="geometry">
            <mxPoint x="1173.2000732421875" y="-1765.2000122070312" as="sourcePoint" />
            <mxPoint x="490" y="-970" as="targetPoint" />
          </mxGeometry>
        </mxCell>
        <mxCell id="flxJ69BRBtbWZ8iZQbLb-17" value="身份证号" style="ellipse;whiteSpace=wrap;html=1;align=center;" vertex="1" parent="1">
          <mxGeometry x="20" y="-790" width="80" height="30" as="geometry" />
        </mxCell>
        <mxCell id="flxJ69BRBtbWZ8iZQbLb-18" value="住址" style="ellipse;whiteSpace=wrap;html=1;align=center;" vertex="1" parent="1">
          <mxGeometry x="20" y="-830" width="80" height="30" as="geometry" />
        </mxCell>
        <mxCell id="flxJ69BRBtbWZ8iZQbLb-160" style="endArrow=none;edgeStyle=none;rounded=0;orthogonalLoop=1;jettySize=auto;html=1;exitX=0.5;exitY=1;exitDx=0;exitDy=0;entryX=0.5;entryY=0;entryDx=0;entryDy=0;" edge="1" parent="1" source="flxJ69BRBtbWZ8iZQbLb-110" target="flxJ69BRBtbWZ8iZQbLb-140">
          <mxGeometry relative="1" as="geometry" />
        </mxCell>
        <mxCell id="flxJ69BRBtbWZ8iZQbLb-181" style="endArrow=none;edgeStyle=none;rounded=0;orthogonalLoop=1;jettySize=auto;html=1;exitX=0.5;exitY=0;exitDx=0;exitDy=0;entryX=1;entryY=0.5;entryDx=0;entryDy=0;" edge="1" parent="1" source="flxJ69BRBtbWZ8iZQbLb-110" target="flxJ69BRBtbWZ8iZQbLb-179">
          <mxGeometry relative="1" as="geometry" />
        </mxCell>
        <mxCell id="flxJ69BRBtbWZ8iZQbLb-110" value="业务员" style="whiteSpace=wrap;html=1;align=center;" vertex="1" parent="1">
          <mxGeometry x="400" y="-635" width="100" height="40" as="geometry" />
        </mxCell>
        <mxCell id="flxJ69BRBtbWZ8iZQbLb-111" value="存款类型" style="ellipse;whiteSpace=wrap;html=1;align=center;" vertex="1" parent="1">
          <mxGeometry x="20" y="-755" width="80" height="30" as="geometry" />
        </mxCell>
        <mxCell id="flxJ69BRBtbWZ8iZQbLb-112" value="存款日期" style="ellipse;whiteSpace=wrap;html=1;align=center;" vertex="1" parent="1">
          <mxGeometry x="20" y="-720" width="80" height="30" as="geometry" />
        </mxCell>
        <mxCell id="flxJ69BRBtbWZ8iZQbLb-113" value="到期日期" style="ellipse;whiteSpace=wrap;html=1;align=center;" vertex="1" parent="1">
          <mxGeometry x="20" y="-680" width="80" height="30" as="geometry" />
        </mxCell>
        <mxCell id="flxJ69BRBtbWZ8iZQbLb-114" value="存款金额" style="ellipse;whiteSpace=wrap;html=1;align=center;" vertex="1" parent="1">
          <mxGeometry x="20" y="-640" width="80" height="30" as="geometry" />
        </mxCell>
        <mxCell id="flxJ69BRBtbWZ8iZQbLb-116" value="姓名" style="ellipse;whiteSpace=wrap;html=1;align=center;" vertex="1" parent="1">
          <mxGeometry x="20" y="-870" width="80" height="30" as="geometry" />
        </mxCell>
        <mxCell id="flxJ69BRBtbWZ8iZQbLb-117" value="利率" style="ellipse;whiteSpace=wrap;html=1;align=center;" vertex="1" parent="1">
          <mxGeometry x="20" y="-600" width="80" height="30" as="geometry" />
        </mxCell>
        <mxCell id="flxJ69BRBtbWZ8iZQbLb-121" value="" style="endArrow=none;html=1;rounded=0;exitX=1;exitY=0.5;exitDx=0;exitDy=0;entryX=0;entryY=0.5;entryDx=0;entryDy=0;" edge="1" parent="1" source="flxJ69BRBtbWZ8iZQbLb-116" target="flxJ69BRBtbWZ8iZQbLb-3">
          <mxGeometry relative="1" as="geometry">
            <mxPoint x="110" y="-740" as="sourcePoint" />
            <mxPoint x="270" y="-740" as="targetPoint" />
          </mxGeometry>
        </mxCell>
        <mxCell id="flxJ69BRBtbWZ8iZQbLb-122" value="" style="endArrow=none;html=1;rounded=0;exitX=1;exitY=0.5;exitDx=0;exitDy=0;entryX=0;entryY=0.5;entryDx=0;entryDy=0;" edge="1" parent="1" source="flxJ69BRBtbWZ8iZQbLb-18" target="flxJ69BRBtbWZ8iZQbLb-3">
          <mxGeometry relative="1" as="geometry">
            <mxPoint x="110" y="-740" as="sourcePoint" />
            <mxPoint x="270" y="-740" as="targetPoint" />
          </mxGeometry>
        </mxCell>
        <mxCell id="flxJ69BRBtbWZ8iZQbLb-123" value="" style="endArrow=none;html=1;rounded=0;exitX=1;exitY=0.5;exitDx=0;exitDy=0;" edge="1" parent="1" source="flxJ69BRBtbWZ8iZQbLb-17">
          <mxGeometry relative="1" as="geometry">
            <mxPoint x="110" y="-740" as="sourcePoint" />
            <mxPoint x="160" y="-740" as="targetPoint" />
          </mxGeometry>
        </mxCell>
        <mxCell id="flxJ69BRBtbWZ8iZQbLb-124" value="" style="endArrow=none;html=1;rounded=0;exitX=1;exitY=0.5;exitDx=0;exitDy=0;entryX=0;entryY=0.5;entryDx=0;entryDy=0;" edge="1" parent="1" source="flxJ69BRBtbWZ8iZQbLb-111" target="flxJ69BRBtbWZ8iZQbLb-3">
          <mxGeometry relative="1" as="geometry">
            <mxPoint x="110" y="-740" as="sourcePoint" />
            <mxPoint x="270" y="-740" as="targetPoint" />
          </mxGeometry>
        </mxCell>
        <mxCell id="flxJ69BRBtbWZ8iZQbLb-125" value="" style="endArrow=none;html=1;rounded=0;exitX=1;exitY=0.5;exitDx=0;exitDy=0;entryX=0;entryY=0.5;entryDx=0;entryDy=0;" edge="1" parent="1" source="flxJ69BRBtbWZ8iZQbLb-112" target="flxJ69BRBtbWZ8iZQbLb-3">
          <mxGeometry relative="1" as="geometry">
            <mxPoint x="110" y="-740" as="sourcePoint" />
            <mxPoint x="270" y="-740" as="targetPoint" />
          </mxGeometry>
        </mxCell>
        <mxCell id="flxJ69BRBtbWZ8iZQbLb-126" value="" style="endArrow=none;html=1;rounded=0;exitX=1;exitY=0.5;exitDx=0;exitDy=0;entryX=0;entryY=0.5;entryDx=0;entryDy=0;" edge="1" parent="1" source="flxJ69BRBtbWZ8iZQbLb-113" target="flxJ69BRBtbWZ8iZQbLb-3">
          <mxGeometry relative="1" as="geometry">
            <mxPoint x="110" y="-740" as="sourcePoint" />
            <mxPoint x="270" y="-740" as="targetPoint" />
          </mxGeometry>
        </mxCell>
        <mxCell id="flxJ69BRBtbWZ8iZQbLb-127" value="" style="endArrow=none;html=1;rounded=0;exitX=1;exitY=0.5;exitDx=0;exitDy=0;" edge="1" parent="1" source="flxJ69BRBtbWZ8iZQbLb-114">
          <mxGeometry relative="1" as="geometry">
            <mxPoint x="110" y="-740" as="sourcePoint" />
            <mxPoint x="160" y="-740" as="targetPoint" />
          </mxGeometry>
        </mxCell>
        <mxCell id="flxJ69BRBtbWZ8iZQbLb-128" value="" style="endArrow=none;html=1;rounded=0;exitX=1;exitY=0.5;exitDx=0;exitDy=0;entryX=0;entryY=0.5;entryDx=0;entryDy=0;" edge="1" parent="1" source="flxJ69BRBtbWZ8iZQbLb-117" target="flxJ69BRBtbWZ8iZQbLb-3">
          <mxGeometry relative="1" as="geometry">
            <mxPoint x="110" y="-740" as="sourcePoint" />
            <mxPoint x="270" y="-740" as="targetPoint" />
          </mxGeometry>
        </mxCell>
        <mxCell id="flxJ69BRBtbWZ8iZQbLb-129" value="" style="endArrow=none;html=1;rounded=0;entryX=0.5;entryY=1;entryDx=0;entryDy=0;exitX=0.5;exitY=0;exitDx=0;exitDy=0;" edge="1" parent="1" source="flxJ69BRBtbWZ8iZQbLb-3" target="flxJ69BRBtbWZ8iZQbLb-1">
          <mxGeometry relative="1" as="geometry">
            <mxPoint x="180" y="-740" as="sourcePoint" />
            <mxPoint x="340" y="-740" as="targetPoint" />
          </mxGeometry>
        </mxCell>
        <mxCell id="flxJ69BRBtbWZ8iZQbLb-130" value="" style="endArrow=none;html=1;rounded=0;entryX=0.5;entryY=0;entryDx=0;entryDy=0;exitX=0.5;exitY=0;exitDx=0;exitDy=0;" edge="1" parent="1" source="flxJ69BRBtbWZ8iZQbLb-175" target="flxJ69BRBtbWZ8iZQbLb-2">
          <mxGeometry relative="1" as="geometry">
            <mxPoint x="240" y="-750" as="sourcePoint" />
            <mxPoint x="400" y="-750" as="targetPoint" />
          </mxGeometry>
        </mxCell>
        <mxCell id="flxJ69BRBtbWZ8iZQbLb-131" value="" style="endArrow=none;html=1;rounded=0;exitX=0.5;exitY=1;exitDx=0;exitDy=0;entryX=0.5;entryY=0;entryDx=0;entryDy=0;" edge="1" parent="1" source="flxJ69BRBtbWZ8iZQbLb-3" target="flxJ69BRBtbWZ8iZQbLb-110">
          <mxGeometry relative="1" as="geometry">
            <mxPoint x="240" y="-680" as="sourcePoint" />
            <mxPoint x="400" y="-680" as="targetPoint" />
          </mxGeometry>
        </mxCell>
        <mxCell id="flxJ69BRBtbWZ8iZQbLb-141" style="edgeStyle=orthogonalEdgeStyle;rounded=0;orthogonalLoop=1;jettySize=auto;html=1;entryX=0;entryY=0.5;entryDx=0;entryDy=0;exitX=1;exitY=0.5;exitDx=0;exitDy=0;endArrow=none;" edge="1" parent="1" source="flxJ69BRBtbWZ8iZQbLb-132" target="flxJ69BRBtbWZ8iZQbLb-140">
          <mxGeometry relative="1" as="geometry" />
        </mxCell>
        <mxCell id="flxJ69BRBtbWZ8iZQbLb-132" value="打印存款单" style="shape=rhombus;perimeter=rhombusPerimeter;whiteSpace=wrap;html=1;align=center;direction=south;" vertex="1" parent="1">
          <mxGeometry x="-220" y="-795" width="60" height="110" as="geometry" />
        </mxCell>
        <mxCell id="flxJ69BRBtbWZ8iZQbLb-139" value="" style="endArrow=none;html=1;rounded=0;entryX=0;entryY=0.5;entryDx=0;entryDy=0;exitX=0;exitY=0.5;exitDx=0;exitDy=0;edgeStyle=orthogonalEdgeStyle;" edge="1" parent="1" source="flxJ69BRBtbWZ8iZQbLb-132" target="flxJ69BRBtbWZ8iZQbLb-1">
          <mxGeometry width="50" height="50" relative="1" as="geometry">
            <mxPoint x="290" y="-660" as="sourcePoint" />
            <mxPoint x="340" y="-710" as="targetPoint" />
          </mxGeometry>
        </mxCell>
        <mxCell id="flxJ69BRBtbWZ8iZQbLb-140" value="银行" style="whiteSpace=wrap;html=1;align=center;" vertex="1" parent="1">
          <mxGeometry x="400" y="-410" width="100" height="40" as="geometry" />
        </mxCell>
        <mxCell id="flxJ69BRBtbWZ8iZQbLb-145" style="edgeStyle=orthogonalEdgeStyle;rounded=0;orthogonalLoop=1;jettySize=auto;html=1;exitX=1;exitY=0.5;exitDx=0;exitDy=0;entryX=1;entryY=0.5;entryDx=0;entryDy=0;endArrow=none;" edge="1" parent="1" source="flxJ69BRBtbWZ8iZQbLb-143" target="flxJ69BRBtbWZ8iZQbLb-140">
          <mxGeometry relative="1" as="geometry" />
        </mxCell>
        <mxCell id="flxJ69BRBtbWZ8iZQbLb-143" value="打印取款金额、利息清单" style="shape=rhombus;perimeter=rhombusPerimeter;whiteSpace=wrap;html=1;align=center;direction=south;" vertex="1" parent="1">
          <mxGeometry x="920" y="-800" width="60" height="120" as="geometry" />
        </mxCell>
        <mxCell id="flxJ69BRBtbWZ8iZQbLb-150" value="利率" style="ellipse;whiteSpace=wrap;html=1;align=center;" vertex="1" parent="1">
          <mxGeometry x="770" y="-680" width="80" height="30" as="geometry" />
        </mxCell>
        <mxCell id="flxJ69BRBtbWZ8iZQbLb-151" value="存款日期" style="ellipse;whiteSpace=wrap;html=1;align=center;" vertex="1" parent="1">
          <mxGeometry x="770" y="-810" width="80" height="30" as="geometry" />
        </mxCell>
        <mxCell id="flxJ69BRBtbWZ8iZQbLb-153" value="取款日期" style="ellipse;whiteSpace=wrap;html=1;align=center;" vertex="1" parent="1">
          <mxGeometry x="770" y="-770" width="80" height="30" as="geometry" />
        </mxCell>
        <mxCell id="flxJ69BRBtbWZ8iZQbLb-154" value="取款金额" style="ellipse;whiteSpace=wrap;html=1;align=center;" vertex="1" parent="1">
          <mxGeometry x="770" y="-725" width="80" height="30" as="geometry" />
        </mxCell>
        <mxCell id="flxJ69BRBtbWZ8iZQbLb-155" style="edgeStyle=orthogonalEdgeStyle;rounded=0;orthogonalLoop=1;jettySize=auto;html=1;exitX=0.5;exitY=1;exitDx=0;exitDy=0;" edge="1" parent="1" source="flxJ69BRBtbWZ8iZQbLb-150" target="flxJ69BRBtbWZ8iZQbLb-150">
          <mxGeometry relative="1" as="geometry" />
        </mxCell>
        <mxCell id="flxJ69BRBtbWZ8iZQbLb-163" style="endArrow=none;edgeStyle=none;rounded=0;orthogonalLoop=1;jettySize=auto;html=1;exitX=0.5;exitY=1;exitDx=0;exitDy=0;entryX=0;entryY=0.5;entryDx=0;entryDy=0;" edge="1" parent="1" source="flxJ69BRBtbWZ8iZQbLb-161" target="flxJ69BRBtbWZ8iZQbLb-111">
          <mxGeometry relative="1" as="geometry">
            <mxPoint x="210" y="-760" as="targetPoint" />
          </mxGeometry>
        </mxCell>
        <mxCell id="flxJ69BRBtbWZ8iZQbLb-161" value="活期" style="whiteSpace=wrap;html=1;align=center;" vertex="1" parent="1">
          <mxGeometry x="-140" y="-820" width="100" height="40" as="geometry" />
        </mxCell>
        <mxCell id="flxJ69BRBtbWZ8iZQbLb-164" style="endArrow=none;edgeStyle=none;rounded=0;orthogonalLoop=1;jettySize=auto;html=1;exitX=0.5;exitY=0;exitDx=0;exitDy=0;entryX=0;entryY=0.5;entryDx=0;entryDy=0;" edge="1" parent="1" source="flxJ69BRBtbWZ8iZQbLb-162" target="flxJ69BRBtbWZ8iZQbLb-111">
          <mxGeometry relative="1" as="geometry" />
        </mxCell>
        <mxCell id="flxJ69BRBtbWZ8iZQbLb-170" style="edgeStyle=none;rounded=0;orthogonalLoop=1;jettySize=auto;html=1;exitX=0.5;exitY=1;exitDx=0;exitDy=0;entryX=0.5;entryY=0;entryDx=0;entryDy=0;endArrow=none;" edge="1" parent="1" source="flxJ69BRBtbWZ8iZQbLb-162" target="flxJ69BRBtbWZ8iZQbLb-165">
          <mxGeometry relative="1" as="geometry" />
        </mxCell>
        <mxCell id="flxJ69BRBtbWZ8iZQbLb-171" style="endArrow=none;edgeStyle=none;rounded=0;orthogonalLoop=1;jettySize=auto;html=1;exitX=0.5;exitY=1;exitDx=0;exitDy=0;entryX=0.5;entryY=0;entryDx=0;entryDy=0;" edge="1" parent="1" source="flxJ69BRBtbWZ8iZQbLb-162" target="flxJ69BRBtbWZ8iZQbLb-166">
          <mxGeometry relative="1" as="geometry" />
        </mxCell>
        <mxCell id="flxJ69BRBtbWZ8iZQbLb-172" style="endArrow=none;edgeStyle=none;rounded=0;orthogonalLoop=1;jettySize=auto;html=1;exitX=0.5;exitY=1;exitDx=0;exitDy=0;entryX=0.5;entryY=0;entryDx=0;entryDy=0;" edge="1" parent="1" source="flxJ69BRBtbWZ8iZQbLb-162" target="flxJ69BRBtbWZ8iZQbLb-167">
          <mxGeometry relative="1" as="geometry" />
        </mxCell>
        <mxCell id="flxJ69BRBtbWZ8iZQbLb-173" style="edgeStyle=none;rounded=0;orthogonalLoop=1;jettySize=auto;html=1;exitX=0.5;exitY=1;exitDx=0;exitDy=0;entryX=0.5;entryY=0;entryDx=0;entryDy=0;endArrow=none;" edge="1" parent="1" source="flxJ69BRBtbWZ8iZQbLb-162" target="flxJ69BRBtbWZ8iZQbLb-168">
          <mxGeometry relative="1" as="geometry" />
        </mxCell>
        <mxCell id="flxJ69BRBtbWZ8iZQbLb-174" style="endArrow=none;edgeStyle=none;rounded=0;orthogonalLoop=1;jettySize=auto;html=1;exitX=0.5;exitY=1;exitDx=0;exitDy=0;entryX=0.5;entryY=0;entryDx=0;entryDy=0;" edge="1" parent="1" source="flxJ69BRBtbWZ8iZQbLb-162" target="flxJ69BRBtbWZ8iZQbLb-169">
          <mxGeometry relative="1" as="geometry" />
        </mxCell>
        <mxCell id="flxJ69BRBtbWZ8iZQbLb-162" value="定期" style="whiteSpace=wrap;html=1;align=center;" vertex="1" parent="1">
          <mxGeometry x="-140" y="-710" width="100" height="40" as="geometry" />
        </mxCell>
        <mxCell id="flxJ69BRBtbWZ8iZQbLb-165" value="3个月" style="whiteSpace=wrap;html=1;align=center;" vertex="1" parent="1">
          <mxGeometry x="-180" y="-615" width="50" height="20" as="geometry" />
        </mxCell>
        <mxCell id="flxJ69BRBtbWZ8iZQbLb-166" value="6个月" style="whiteSpace=wrap;html=1;align=center;" vertex="1" parent="1">
          <mxGeometry x="-120" y="-615" width="50" height="20" as="geometry" />
        </mxCell>
        <mxCell id="flxJ69BRBtbWZ8iZQbLb-167" value="1年" style="whiteSpace=wrap;html=1;align=center;" vertex="1" parent="1">
          <mxGeometry x="-60" y="-615" width="40" height="20" as="geometry" />
        </mxCell>
        <mxCell id="flxJ69BRBtbWZ8iZQbLb-168" value="3年" style="whiteSpace=wrap;html=1;align=center;" vertex="1" parent="1">
          <mxGeometry x="-150" y="-580" width="40" height="20" as="geometry" />
        </mxCell>
        <mxCell id="flxJ69BRBtbWZ8iZQbLb-169" value="5年" style="whiteSpace=wrap;html=1;align=center;" vertex="1" parent="1">
          <mxGeometry x="-80" y="-580" width="40" height="20" as="geometry" />
        </mxCell>
        <mxCell id="flxJ69BRBtbWZ8iZQbLb-176" value="" style="endArrow=none;html=1;rounded=0;entryX=0.5;entryY=1;entryDx=0;entryDy=0;exitX=0.5;exitY=1;exitDx=0;exitDy=0;" edge="1" parent="1" source="flxJ69BRBtbWZ8iZQbLb-1" target="flxJ69BRBtbWZ8iZQbLb-175">
          <mxGeometry relative="1" as="geometry">
            <mxPoint x="450" y="-880" as="sourcePoint" />
            <mxPoint x="680" y="-760" as="targetPoint" />
          </mxGeometry>
        </mxCell>
        <mxCell id="flxJ69BRBtbWZ8iZQbLb-175" value="核对密码" style="shape=rhombus;perimeter=rhombusPerimeter;whiteSpace=wrap;html=1;align=center;direction=south;rotation=30;" vertex="1" parent="1">
          <mxGeometry x="550" y="-850" width="40" height="70" as="geometry" />
        </mxCell>
        <mxCell id="flxJ69BRBtbWZ8iZQbLb-179" value="查询" style="shape=rhombus;perimeter=rhombusPerimeter;whiteSpace=wrap;html=1;align=center;direction=south;" vertex="1" parent="1">
          <mxGeometry x="425" y="-780" width="50" height="80" as="geometry" />
        </mxCell>
        <mxCell id="flxJ69BRBtbWZ8iZQbLb-182" value="软工233 张林 2330110543" style="whiteSpace=wrap;html=1;align=center;" vertex="1" parent="1">
          <mxGeometry x="400" y="-1080" width="100" height="40" as="geometry" />
        </mxCell>
      </root>
    </mxGraphModel>
  </diagram>
</mxfile>
